<?xml version="1.0" standalone="no"?>
<!DOCTYPE svg PUBLIC "-//W3C//DTD SVG 20010904//EN"
 "http://www.w3.org/TR/2001/REC-SVG-20010904/DTD/svg10.dtd">
<svg version="1.0" xmlns="http://www.w3.org/2000/svg"
 width="512.000000pt" height="512.000000pt" viewBox="0 0 512.000000 512.000000"
 preserveAspectRatio="xMidYMid meet">
<metadata>
Created by potrace 1.11, written by Peter Selinger 2001-2013
</metadata>
<g transform="translate(0.000000,512.000000) scale(0.100000,-0.100000)"
fill="#000000" stroke="none">
<path d="M2540 5080 c-210 -37 -248 -44 -300 -55 -14 -3 -40 -8 -59 -11 -40
-7 -52 -9 -111 -23 -52 -11 -94 -20 -130 -26 -14 -2 -36 -7 -50 -10 -14 -3
-50 -11 -80 -16 -77 -16 -85 -17 -85 -19 0 -1 -9 -3 -20 -4 -26 -3 -176 -37
-195 -44 -8 -3 -18 -4 -23 -4 -20 5 -247 -268 -247 -297 0 -5 -6 -14 -13 -18
-7 -4 -61 -78 -120 -163 -128 -186 -105 -154 -228 -329 -55 -80 -104 -154
-108 -165 -25 -68 46 -236 137 -322 28 -26 97 -66 103 -60 2 2 18 6 34 9 49 7
117 42 281 142 145 89 202 116 269 128 17 3 41 8 55 12 81 18 254 26 314 13
31 -6 54 -19 71 -40 24 -28 26 -37 22 -97 -5 -75 -8 -84 -56 -166 -99 -172
-276 -370 -450 -503 -104 -79 -158 -112 -266 -165 -253 -122 -608 -192 -760
-148 -22 6 -51 14 -63 17 -13 2 -43 11 -65 19 -23 8 -52 15 -64 15 -97 0 -139
-127 -78 -235 53 -95 137 -196 191 -233 98 -65 265 -100 387 -81 28 5 67 11
85 14 19 3 65 12 104 21 39 9 75 17 82 18 6 2 31 8 56 15 25 8 50 14 55 16 6
1 17 4 25 7 8 3 58 20 110 38 110 37 127 44 275 116 152 74 192 98 303 181
153 115 285 256 367 394 39 66 110 217 128 274 40 128 51 265 29 385 -18 99
-17 96 -62 195 -68 150 -253 279 -471 328 -64 14 -213 15 -314 2 -22 -3 -69
-7 -104 -10 -34 -3 -68 -8 -74 -12 -11 -7 51 84 80 117 104 120 101 118 166
129 83 14 138 23 162 26 11 1 20 3 20 4 0 1 14 4 30 6 60 8 101 14 151 24 28
5 71 12 95 15 24 3 54 8 65 10 20 4 57 11 129 22 62 11 81 13 115 18 19 2 55
9 80 15 25 5 63 12 85 15 22 3 51 8 65 10 13 3 42 8 63 11 71 11 163 44 185
68 25 26 49 122 47 187 -3 108 -30 185 -82 230 -40 35 -92 34 -343 -10z"/>
<path d="M4530 5117 c-3 -3 -18 -8 -34 -11 -41 -7 -129 -37 -143 -49 -7 -5
-13 -7 -13 -4 0 10 -214 -91 -325 -153 -265 -147 -543 -381 -735 -619 -19 -24
-40 -48 -45 -55 -21 -22 -103 -143 -142 -207 -98 -160 -208 -406 -238 -529 -2
-8 -12 -49 -23 -90 -77 -284 -59 -531 54 -727 157 -273 369 -348 729 -256 33
8 65 16 70 17 10 2 44 14 130 48 91 36 270 136 330 185 6 4 22 16 36 25 14 9
32 23 40 30 8 7 32 26 54 43 41 30 252 238 293 287 172 213 298 444 387 711
43 130 69 221 80 284 3 18 11 62 19 98 19 91 19 271 0 353 -29 126 -86 214
-156 243 -16 6 -28 15 -28 19 0 4 22 17 50 29 66 29 75 46 48 101 -38 77 -151
175 -238 208 -37 13 -191 28 -200 19z m167 -579 c75 -73 92 -209 46 -363 -24
-79 -120 -287 -135 -293 -4 -2 -8 -8 -8 -14 0 -12 -54 -104 -119 -202 -25 -38
-50 -76 -56 -85 -5 -9 -12 -18 -15 -21 -3 -3 -32 -39 -65 -80 -80 -101 -250
-270 -505 -500 -39 -35 -100 -80 -109 -80 -5 0 -11 -4 -13 -8 -7 -20 -211
-124 -271 -139 -12 -3 -41 -8 -65 -10 -37 -5 -45 -2 -72 27 -32 34 -59 110
-67 188 -15 153 6 264 83 445 20 45 36 87 38 92 2 12 81 170 99 200 140 231
303 412 517 573 41 31 77 59 80 62 14 14 132 90 140 90 6 0 10 5 10 10 0 6 6
10 14 10 8 0 16 3 18 8 3 8 62 42 73 42 3 0 11 -13 16 -30 15 -43 42 -38 106
16 123 105 197 123 260 62z"/>
<path d="M2467 2194 c-1 -1 -69 -4 -152 -8 -82 -3 -163 -8 -180 -10 -16 -2
-64 -7 -105 -11 -41 -3 -86 -8 -100 -10 -14 -2 -43 -6 -65 -10 -23 -3 -52 -7
-65 -10 -13 -3 -42 -7 -65 -10 -22 -4 -89 -18 -150 -31 -60 -14 -119 -27 -129
-29 -60 -13 -411 -128 -471 -155 -124 -55 -233 -109 -295 -146 -102 -61 -112
-68 -126 -79 -6 -5 -31 -26 -54 -45 -181 -147 -238 -287 -164 -407 87 -142
307 -176 484 -75 73 41 93 66 86 110 l-6 37 131 64 c118 57 332 144 384 156
11 3 71 18 134 34 62 17 125 32 140 34 14 3 42 8 61 11 19 4 44 9 55 11 11 2
20 4 20 5 0 1 14 3 30 5 28 4 108 16 130 20 17 3 133 18 235 30 242 28 764 38
1045 21 229 -15 336 -23 390 -31 17 -3 62 -7 100 -10 39 -4 81 -8 95 -11 14
-2 45 -7 70 -10 25 -3 54 -8 65 -11 11 -4 29 -7 40 -8 31 -3 109 -16 115 -20
3 -2 30 -6 60 -10 30 -4 57 -8 60 -10 3 -2 24 -6 46 -9 22 -4 51 -9 64 -12 47
-11 153 -11 184 0 81 28 136 94 136 164 0 91 -112 193 -270 247 -3 1 -18 7
-33 13 -16 7 -34 12 -41 12 -6 0 -16 4 -22 9 -11 10 -127 43 -204 57 -14 2
-56 11 -95 19 -61 12 -95 18 -224 40 -13 2 -45 7 -70 11 -25 3 -57 8 -71 10
-14 3 -50 7 -80 10 -59 5 -93 8 -180 18 -121 14 -453 28 -718 30 -123 0 -224
0 -225 0z"/>
<path d="M3368 1375 c-2 -2 -88 -6 -193 -9 -222 -6 -380 -13 -450 -20 -27 -3
-84 -7 -125 -11 -122 -10 -172 -15 -225 -21 -27 -4 -61 -8 -75 -9 -49 -5 -145
-17 -165 -21 -10 -2 -37 -6 -60 -9 -43 -6 -135 -22 -175 -30 -14 -3 -41 -8
-60 -11 -19 -3 -89 -19 -155 -35 -66 -16 -129 -31 -140 -33 -35 -7 -197 -56
-290 -87 -478 -163 -870 -372 -1061 -564 -114 -115 -159 -202 -151 -291 10
-107 77 -177 199 -209 72 -20 202 -12 273 15 126 49 218 121 209 163 -3 12 -6
28 -7 36 -2 17 53 51 228 141 200 104 456 203 660 255 17 5 35 9 40 11 6 2 23
6 39 9 15 3 58 13 95 21 36 9 77 18 91 20 14 3 32 7 40 9 8 2 29 7 45 10 17 2
41 7 55 10 14 3 36 8 50 10 14 2 79 14 145 26 66 12 138 23 160 25 22 1 40 3
40 4 0 3 41 9 95 15 30 3 62 7 70 10 8 2 46 6 83 10 37 3 77 8 87 10 11 2 59
7 107 10 49 4 104 8 123 10 223 20 934 28 1120 11 47 -4 114 -9 150 -11 61 -3
145 -11 215 -20 38 -5 171 -17 210 -19 54 -3 159 13 193 30 80 38 123 106 116
184 -6 75 -48 121 -153 171 -131 62 -238 92 -446 124 -216 32 -360 43 -725 50
-135 3 -253 7 -262 9 -9 2 -18 3 -20 1z"/>
</g>
</svg>
