<?xml version="1.0" standalone="no"?>
<!DOCTYPE svg PUBLIC "-//W3C//DTD SVG 20010904//EN"
 "http://www.w3.org/TR/2001/REC-SVG-20010904/DTD/svg10.dtd">
<svg version="1.0" xmlns="http://www.w3.org/2000/svg"
 width="250.000000pt" height="250.000000pt" viewBox="0 0 250.000000 250.000000"
 preserveAspectRatio="xMidYMid meet">
<metadata>
Created by potrace 1.11, written by Peter Selinger 2001-2013
</metadata>
<g transform="translate(0.000000,250.000000) scale(0.100000,-0.100000)"
fill="#000000" stroke="none">
<path d="M54 2489 c-11 -6 -28 -23 -37 -39 -16 -26 -17 -123 -17 -1199 0 -820
3 -1177 11 -1194 6 -13 23 -31 39 -40 26 -16 124 -17 1199 -17 820 0 1177 3
1194 11 13 6 31 23 40 39 16 26 17 124 17 1193 0 772 -3 1174 -10 1194 -6 16
-24 37 -39 46 -27 16 -116 17 -1203 16 -767 0 -1180 -4 -1194 -10z"/>
</g>
</svg>
