<svg width="115" height="115" viewBox="0 0 115 115" fill="none" xmlns="http://www.w3.org/2000/svg">
<path fill-rule="evenodd" clip-rule="evenodd" d="M97.7272 14.0525C90.0811 18.4421 83.4077 23.7863 78.7473 31.2214C76.8112 34.3114 75.375 37.7722 74.1031 41.2114C72.9511 44.327 72.7746 47.6624 73.746 50.9358C74.452 53.3153 75.5569 53.9435 77.8904 53.1697C81.4339 51.9941 84.615 50.1363 87.4066 47.653C89.5314 45.7628 91.5901 43.7958 93.6987 41.8868C99.3009 36.8123 103.342 30.6148 106.579 23.8591C107.221 22.5217 107.658 21.0616 107.997 19.6123C108.464 17.6103 108.251 15.6271 107.172 13.8246C106.213 12.2203 104.71 11.7403 103.083 12.6423C102.047 13.2166 101.127 14.0107 100.2 14.7616C98.7323 15.9493 98.5922 15.9345 97.7272 14.0525ZM115 19.9507C114.786 21.1748 114.613 22.4057 114.351 23.6191C111.16 38.4031 103.336 49.8936 90.1215 57.4784C86.0916 59.7919 81.6778 61.0349 77.0564 61.5243C72.2734 62.0312 68.5615 60.2018 65.8897 56.2786C62.5834 51.4211 62.1172 46.0068 63.3554 40.4632C65.9773 28.726 72.3233 19.2038 81.3895 11.4896C86.9432 6.76423 93.2204 3.2118 100.135 0.772952C104.673 -0.825981 108.453 0.0247159 111.632 3.6149C111.96 3.987 112.27 4.38605 112.53 4.80938C113.484 6.35843 113.325 6.77771 111.622 7.40596C111.262 7.53943 110.92 7.72009 110.162 8.06387C113.93 9.37564 114.297 12.5128 115 15.4532V19.9507Z" fill="#FF7B30"/>
<path fill-rule="evenodd" clip-rule="evenodd" d="M15.2073 109.694C16.2323 111.026 15.4066 111.779 14.4304 112.468C11.4895 114.541 8.28974 115.514 4.71708 114.73C0.367512 113.778 -1.37204 109.774 1.20136 106.098C2.53823 104.19 4.32117 102.483 6.20309 101.116C12.3139 96.6752 19.1975 93.7658 26.2466 91.2775C35.6345 87.9635 45.3627 86.2526 55.2225 85.2943C66.3553 84.2131 77.5126 83.9024 88.6848 84.4879C94.4119 84.7889 100.134 85.2335 105.689 86.816C107.202 87.2454 108.686 87.8571 110.091 88.5724C111.826 89.4575 113.096 90.8066 112.887 92.9925C112.731 94.6343 110.944 96.3535 108.827 96.6711C107.238 96.9113 105.575 96.9776 103.983 96.7871C82.2364 94.1925 60.6811 95.3993 39.3034 100.109C31.1846 101.898 23.4576 104.777 16.2594 109.05C15.9327 109.245 15.61 109.448 15.2073 109.694Z" fill="#FF7B30"/>
<path fill-rule="evenodd" clip-rule="evenodd" d="M19.6905 85.9264C20.5379 87.0363 20.0392 87.7428 19.1607 88.3501C16.4726 90.2051 13.5574 90.8881 10.4084 89.9159C6.45262 88.6971 5.01193 84.7186 7.51354 81.3722C8.82584 79.6191 10.5855 78.1029 12.3978 76.8718C17.0808 73.6934 22.3367 71.7186 27.6657 69.9958C36.845 67.0254 46.3123 65.9099 55.8984 65.7529C69.1836 65.534 82.4107 66.1908 95.4148 69.2343C97.8866 69.8127 100.292 70.778 102.636 71.7916C103.768 72.2819 104.844 73.1522 105.667 74.101C107.309 75.9987 106.796 78.3233 104.654 79.5944C103.203 80.4551 101.64 80.4922 100.06 80.232C95.4337 79.4718 90.84 78.4541 86.1908 77.9267C69.066 75.9808 51.9885 75.9767 35.0638 79.8409C29.7037 81.0651 24.6802 83.1804 19.6905 85.9264Z" fill="#FF7B30"/>
<path fill-rule="evenodd" clip-rule="evenodd" d="M63.8145 0.0217205C62.2754 -0.390107 34.1668 5.18356 32.8847 5.78065C31.9375 6.22046 30.2639 7.86777 19.3275 23.6385C18.5768 24.7207 18.0723 25.4498 17.9606 25.5977C17.8395 25.7496 17.7265 25.8829 17.6243 26.0042C16.5184 27.313 16.1686 28.2712 17.0135 30.497C17.035 30.5516 19.4042 35.9973 22.4514 35.996H22.4729C23.782 35.9853 25.7785 34.9018 29.489 32.6281L31.2702 31.5512C32.8793 30.5769 33.5452 30.1744 35.1812 29.8599C38.1921 29.2841 43.7928 28.2099 45.5728 29.9825C46.2374 30.6462 46.3988 31.8511 46.0517 33.5664C45.605 35.7694 38.5271 46.9101 27.4091 51.5735C22.9021 53.466 17.9216 54.6002 13.3877 54.7682C12.4379 54.8028 11.8016 54.6056 10.9257 54.3323C10.284 54.1298 9.55481 53.9019 8.63324 53.7592C8.47718 53.7353 8.27672 53.6486 8.06415 53.5567C7.53005 53.3261 6.63942 52.9423 5.67345 53.4314C4.73439 53.9072 4.41554 54.8734 4.24199 55.6625C3.90296 57.2045 5.01961 59.025 6.93002 61.4614L7.19505 61.8012C9.26287 64.5401 13.1967 65.7142 16.4108 65.7142C16.6247 65.7142 16.8359 65.7089 17.0417 65.6982C17.2624 65.6876 39.9868 63.4299 50.4174 48.8586C55.7558 41.4017 56.8939 33.8462 53.6247 27.5835C51.5139 23.5412 46.536 21.2662 42.582 20.4838C41.0254 20.1773 39.7608 20.2533 38.4235 20.3346C38.106 20.3532 37.7777 20.3745 37.432 20.3892C37.0687 20.4052 36.1633 20.5025 35.3615 20.5905C34.8139 20.6504 34.3202 20.7064 34.1533 20.7144C33.743 20.7304 32.9089 20.8463 31.6268 21.0383C33.0354 18.9805 35.1422 16.3136 36.0086 15.7245C38.4773 15.3366 61.8381 11.6395 63.2588 11.225L63.7741 11.0798C65.959 10.4733 66.4998 9.8003 66.82 7.29201C67.1146 4.98098 66.8133 0.849374 63.8145 0.0217205Z" fill="#FF7B30"/>
</svg>
